<svg width="50" height="50" viewBox="0 0 50 50" fill="none" xmlns="http://www.w3.org/2000/svg">
<g clip-path="url(#clip0_644_44714)">
<circle cx="25" cy="25" r="25" fill="white" fill-opacity="0.2"/>
<path fill-rule="evenodd" clip-rule="evenodd" d="M33.3332 24.9993C33.3332 20.3977 29.6015 16.666 24.9998 16.666C20.3982 16.666 16.6665 20.3977 16.6665 24.9993C16.6665 29.601 20.3982 33.3327 24.9998 33.3327C25.0488 33.3327 25.0975 33.3317 25.1463 33.3308V26.8436H23.356V24.7571H25.1463V23.2217C25.1463 21.441 26.2334 20.4718 27.8218 20.4718C28.5825 20.4718 29.2363 20.5285 29.4269 20.5538V22.4149H28.3316C27.4674 22.4149 27.3001 22.8256 27.3001 23.4282V24.7571H29.3664L29.0971 26.8436H27.3001V33.0107C30.7833 32.0122 33.3332 28.8031 33.3332 24.9993Z" fill="white"/>
</g>
<defs>
<clipPath id="clip0_644_44714">
<rect width="50" height="50" fill="white"/>
</clipPath>
</defs>
</svg>
