<svg width="50" height="50" viewBox="0 0 50 50" fill="none" xmlns="http://www.w3.org/2000/svg">
<g clip-path="url(#clip0_644_44716)">
<circle cx="25" cy="25" r="25" fill="white" fill-opacity="0.2"/>
<path fill-rule="evenodd" clip-rule="evenodd" d="M33.3332 19.9124C32.7134 20.1801 32.053 20.3576 31.3644 20.4437C32.0728 20.0273 32.6134 19.373 32.8675 18.5842C32.2071 18.9719 31.478 19.2458 30.7009 19.3986C30.0738 18.7412 29.18 18.334 28.205 18.334C26.3134 18.334 24.7905 19.8458 24.7905 21.6991C24.7905 21.9658 24.8134 22.2222 24.8696 22.4663C22.029 22.3299 19.5155 20.9894 17.8269 18.9473C17.5321 19.4509 17.3592 20.0273 17.3592 20.6478C17.3592 21.813 17.9686 22.8458 18.8769 23.4437C18.328 23.4335 17.7894 23.2765 17.3332 23.0294C17.3332 23.0396 17.3332 23.053 17.3332 23.0663C17.3332 24.7012 18.5175 26.0591 20.0707 26.3719C19.7925 26.4468 19.4894 26.4827 19.1748 26.4827C18.9561 26.4827 18.7353 26.4704 18.528 26.4253C18.9707 27.7576 20.2269 28.7371 21.7207 28.7689C20.5582 29.6642 19.0821 30.2037 17.4842 30.2037C17.204 30.2037 16.9353 30.1914 16.6665 30.1576C18.18 31.1186 19.9738 31.6673 21.9082 31.6673C28.1957 31.6673 31.6332 26.5391 31.6332 22.094C31.6332 21.9453 31.628 21.8017 31.6207 21.6591C32.2988 21.1853 32.8686 20.5935 33.3332 19.9124Z" fill="white"/>
</g>
<defs>
<clipPath id="clip0_644_44716">
<rect width="50" height="50" fill="white"/>
</clipPath>
</defs>
</svg>
