<svg width="50" height="50" viewBox="0 0 50 50" fill="none" xmlns="http://www.w3.org/2000/svg">
<g clip-path="url(#clip0_644_44715)">
<circle cx="25" cy="25" r="25" fill="white" fill-opacity="0.2"/>
<path fill-rule="evenodd" clip-rule="evenodd" d="M26.0732 16.6661C27.3922 16.6697 27.7149 16.6826 28.4421 16.7171C29.3279 16.7562 29.9337 16.8994 30.4644 17.1045C31.018 17.3129 31.5228 17.6418 31.9397 18.0651C32.3664 18.4818 32.692 18.9832 32.9037 19.5432C33.1089 20.0708 33.2521 20.6797 33.2912 21.5653C33.3247 22.3272 33.3319 22.6441 33.3333 24.1442L33.3334 25.4559C33.332 27.3068 33.321 27.61 33.2847 28.4355C33.2457 29.3211 33.1023 29.9267 32.8972 30.4575C32.4641 31.5775 31.5783 32.4631 30.4579 32.8962C29.9304 33.1013 29.3214 33.2446 28.4356 33.2836C27.5465 33.3228 27.2632 33.3324 24.9998 33.3324L24.7648 33.3324C22.7154 33.3317 22.4213 33.3214 21.564 33.2836C20.6781 33.2446 20.0725 33.1013 19.5416 32.8962C18.988 32.6879 18.4832 32.3589 18.0663 31.9357C17.6429 31.5189 17.3141 31.0175 17.1024 30.4575C16.8972 29.9299 16.7538 29.3211 16.7148 28.4355C16.6827 27.7053 16.6704 27.3838 16.667 26.038L16.6671 23.9304C16.6707 22.6116 16.6836 22.289 16.7181 21.562C16.7572 20.6764 16.9004 20.0708 17.1056 19.5401C17.3141 18.9865 17.6429 18.4818 18.0663 18.0651C18.4832 17.6385 18.9847 17.3129 19.5449 17.1012C20.0725 16.8962 20.6814 16.7529 21.5672 16.7138C22.2975 16.6817 22.6191 16.6694 23.9652 16.666L26.0732 16.6661ZM25.8786 18.1797H24.1417C22.6936 18.1826 22.3912 18.1946 21.6421 18.2279C20.8313 18.2637 20.3883 18.4004 20.0952 18.5144C19.7337 18.6478 19.408 18.8595 19.1378 19.1362C18.8577 19.4033 18.646 19.7321 18.5124 20.0936C18.3985 20.3866 18.2617 20.8262 18.226 21.6402C18.1897 22.4511 18.1787 22.7401 18.1773 24.5438V25.4698C18.1787 27.2732 18.1897 27.5596 18.226 28.3736C18.2617 29.1843 18.3985 29.6272 18.5124 29.9202C18.646 30.2816 18.8577 30.6072 19.1345 30.8775C19.4015 31.1542 19.7305 31.3659 20.0919 31.4994C20.385 31.6134 20.8247 31.7501 21.6388 31.7858C22.3852 31.8192 22.6895 31.8312 24.1382 31.834H25.8742C27.3223 31.8312 27.6246 31.8192 28.3736 31.7858C29.1846 31.7501 29.6275 31.6134 29.9206 31.4994C30.6468 31.2193 31.2232 30.6431 31.5033 29.9169C31.6173 29.6239 31.7541 29.1843 31.79 28.3703C31.8247 27.5889 31.8363 27.2963 31.8384 25.679V24.3346C31.8363 22.7168 31.8247 22.4216 31.79 21.6402C31.7541 20.8294 31.6173 20.3866 31.5033 20.0936C31.3698 19.7321 31.1581 19.4065 30.8813 19.1362C30.6143 18.8595 30.2853 18.6478 29.9239 18.5144C29.6308 18.4004 29.1911 18.2637 28.3769 18.2279C27.6306 18.1946 27.3287 18.1826 25.8786 18.1797ZM25.003 20.7187C27.3674 20.7187 29.2855 22.6364 29.2855 25.0004C29.2855 27.3643 27.3674 29.282 25.003 29.282C22.6387 29.282 20.7205 27.3643 20.7205 25.0004C20.7205 22.6364 22.6387 20.7187 25.003 20.7187ZM25.003 22.223C23.4692 22.223 22.225 23.4667 22.225 25.0004C22.225 26.534 23.4692 27.7778 25.003 27.7778C26.5369 27.7778 27.781 26.534 27.781 25.0004C27.781 23.4667 26.5369 22.223 25.003 22.223ZM29.4548 19.5498C30.0071 19.5498 30.4547 19.9973 30.4547 20.5494C30.4547 21.1014 30.0071 21.549 29.4548 21.549C28.9027 21.549 28.4551 21.1014 28.4551 20.5494C28.4551 19.9973 28.9027 19.5498 29.4548 19.5498Z" fill="white"/>
</g>
<defs>
<clipPath id="clip0_644_44715">
<rect width="50" height="50" fill="white"/>
</clipPath>
</defs>
</svg>
